<svg width="231" height="164" viewBox="0 0 231 164" fill="none" xmlns="http://www.w3.org/2000/svg">
<path d="M115.157 0C115.157 4.33333 121.95 15.9 149.121 27.5C183.086 42 154.615 69 169.6 82C181.587 92.4 214.553 83 229.537 77" stroke="#597771"/>
<path d="M81.1923 0C81.1923 5.15026 90.0319 18.8975 125.391 32.6843C169.589 49.9179 132.54 82.008 152.04 97.4587C167.639 109.819 210.537 98.6473 230.037 91.5161" stroke="#597771"/>
<path d="M40.2351 0C40.2351 7.15036 51.5072 26.2363 96.5954 45.3773C152.956 69.3035 105.712 113.856 130.577 135.307C150.469 152.468 205.172 136.957 230.037 127.056" stroke="#597771"/>
<path d="M1.27588 0C1.27588 9.27893 12.9699 34.0465 59.7459 58.8855C118.216 89.9342 72.3789 135.163 98.1745 163" stroke="#597771"/>
<path d="M158.112 0C158.112 2.80014 162.383 10.2744 179.469 17.7701C200.827 27.1398 182.924 44.5869 192.347 52.9873C199.885 59.7076 220.614 53.6335 230.037 49.7563" stroke="#597771"/>
</svg>
