<svg width="39" height="40" viewBox="0 0 39 40" fill="none" xmlns="http://www.w3.org/2000/svg">
<path d="M18.0876 1.85453C18.2526 0.711741 19.9021 0.711741 20.0671 1.85453L21.5127 11.8663C21.6211 12.6174 22.4939 12.9788 23.1015 12.5241L31.1971 6.46699C32.1214 5.77537 33.2881 6.9409 32.5974 7.86596L26.5436 15.974C26.0899 16.5816 26.4512 17.4534 27.2017 17.562L37.2113 19.0103C38.3537 19.1756 38.3537 20.8244 37.2113 20.9897L27.2017 22.438C26.4512 22.5466 26.0899 23.4184 26.5436 24.026L32.5974 32.134C33.2881 33.0591 32.1214 34.2246 31.1971 33.533L23.1015 27.4759C22.4939 27.0212 21.6211 27.3826 21.5127 28.1337L20.0671 38.1455C19.9021 39.2883 18.2526 39.2883 18.0876 38.1455L16.642 28.1337C16.5335 27.3826 15.6608 27.0212 15.0532 27.4759L6.95761 33.533C6.03324 34.2246 4.86655 33.0591 5.55724 32.134L11.6111 24.026C12.0647 23.4184 11.7035 22.5466 10.953 22.438L0.943375 20.9897C-0.199021 20.8244 -0.19902 19.1756 0.943377 19.0103L10.953 17.562C11.7035 17.4534 12.0647 16.5816 11.6111 15.974L5.55724 7.86595C4.86655 6.94089 6.03324 5.77538 6.95761 6.46699L15.0532 12.5241C15.6608 12.9788 16.5335 12.6174 16.642 11.8663L18.0876 1.85453Z" fill="#FF7E35"/>
</svg>
